<!DOCTYPE svg PUBLIC "-//W3C//DTD SVG 1.1//EN" "http://www.w3.org/Graphics/SVG/1.1/DTD/svg11.dtd">
<!-- Uploaded to: SVG Repo, www.svgrepo.com, Transformed by: SVG Repo Mixer Tools -->
<svg fill="#ffee33" width="256px" height="256px" viewBox="-3.2 -3.2 38.40 38.40" xmlns="http://www.w3.org/2000/svg" stroke="#ffee33" stroke-width="0.00032">
<g id="SVGRepo_bgCarrier" stroke-width="0">
<rect x="-3.2" y="-3.2" width="38.40" height="38.40" rx="19.2" fill="#35515a" strokewidth="0"/>
</g>
<g id="SVGRepo_tracerCarrier" stroke-linecap="round" stroke-linejoin="round" stroke="#CCCCCC" stroke-width="0.064"/>
<g id="SVGRepo_iconCarrier"> <title/> <g data-name="Layer 88" id="Layer_88"> <path d="M18,27H14a2,2,0,0,1-2-2V21.16a10,10,0,0,1-6-9.47A10.14,10.14,0,0,1,15.69,2h0A10,10,0,0,1,20,21.16V25A2,2,0,0,1,18,27ZM15.75,4A8.12,8.12,0,0,0,8,11.75a8,8,0,0,0,5.33,7.79,1,1,0,0,1,.67.94V25h4V20.48a1,1,0,0,1,.67-.94,8,8,0,0,0,2.9-13.28A7.85,7.85,0,0,0,15.75,4Z"/> <path d="M19,30H13a1,1,0,0,1,0-2h6a1,1,0,0,1,0,2Z"/> <path d="M15,24V19.48a9,9,0,0,1-6-8.76c.09-3,1.71-4.93,4.52-6.32C9.49,4.47,7.12,8,7,11.72a9,9,0,0,0,6,8.76V25a1,1,0,0,0,1,1h4a1,1,0,0,0,1-1H16A1,1,0,0,1,15,24Z"/> </g> </g>
</svg>